<?xml version="1.0" encoding="UTF-8"?>
<svg id="Capa_2" data-name="Capa 2" xmlns="http://www.w3.org/2000/svg" viewBox="0 0 238.34 175.4">
  <defs>
    <style>
      .cls-1 {
        fill: #c30f15;
      }

      .cls-2 {
        fill: #01376d;
      }
    </style>
  </defs>
  <g id="Capa_4" data-name="Capa 4">
    <g id="KN7llb.tif">
      <g>
        <g>
          <path class="cls-2" d="M75.1,65.72c-.44,1.05-2.68,2.02-1.99,3.98,1.57-.24,2.13-2.06,2.99-2.98,12.1-13.08,24.73-27.36,37.92-39.3,12.1-10.95,30.25-21.14,46.96-15.9,4,1.26,7.04,3.19,9.05,4.71-16.91,10.08-31.12,19.58-42.5,27.64-32.68,23.16-20.27,16.97-33.51,30.27-5.24,5.26-5.95,7.66-4.85,14.87,2.64,17.35,7.41,23.44,7.41,23.44,13.13,24.41,19.79,36.8,35.01,43.54,4.87,2.16,13.9,5.19,26.85,4.01-17.53,16.11-29.29,16.02-34.78,15.05-18.94-3.36-40.82-26.02-56.4-78.15-.38-1.28-.27-2.49-1.66-3.33-1.56-.34-3.6,2.59-4.25,3.71-4.03,7.04-16.64,46.92-16.98,54.74-.17,3.81,3.25,7.49-3.7,7.22-6.56-.26-20.45-6.3-21.46-13.52-.78-5.55,2.79-12.26,4.21-17.61L69.1,18.98c-3.03-.24-5.74,1.04-8.51,1.96-11.42,3.8-37.48,16.72-40.96,28.82-1.16,4.03-.12,8.81-.46,12.97-14.28-.46-23.82-17.48-16.83-30.19,6.17-11.22,30.18-20.63,42.26-24.55C53.83,5,74.54-1.05,83.52.16c5.47.73,14.35,5.87,13.38,12.11-5.71,14.67-12.24,29-18.28,43.53-1.33,3.2-2.25,6.91-3.51,9.93Z"/>
          <path class="cls-2" d="M76.1,66.71c-.85.92-1.42,2.74-2.99,2.98-.69-1.96,1.55-2.93,1.99-3.98l1,.99Z"/>
        </g>
        <path class="cls-1" d="M199,6.33c12.37-1.51,36.96-.91,39.1,16.17,2.93,23.3-21.85,56.09-41.86,31.62,6.92-5.63,14.46-10.76,19.38-18.57,2.65-4.21,5.49-8.62,1.6-13.15-10.85-2.09-22.63,2.98-32,8.46-13.15,7.69-36.88,26.31-18.87,42.2,16.72,14.76,54.2,18.27,46.38,50.3-7.53,30.84-53.36,43.1-78.95,33.83-3.54-1.28-17.2-7.93-16.01-12.8l12.17-15.71c3.39,1.43,4.74,4.98,8.36,6.82,10.05,5.11,20.62,5.03,31.19,2.34,9.12-2.33,18.62-7.76,16.73-19.23-.94-5.68-11.64-11.62-16.27-14.48-18.05-11.14-45.87-20.63-37.94-49.27,6.8-24.56,44.34-45.75,66.98-48.52Z"/>
      </g>
    </g>
  </g>
</svg>