<?xml version="1.0" encoding="UTF-8"?>
<svg id="Capa_2" data-name="Capa 2" xmlns="http://www.w3.org/2000/svg" viewBox="0 0 705.18 176.26">
  <defs>
    <style>
      .cls-1 {
        fill: #c30f15;
      }

      .cls-2 {
        fill: #01376d;
      }

      .cls-3 {
        fill: #fff;
      }

      .cls-4 {
        fill: #fefefe;
      }
    </style>
  </defs>
  <g id="Capa_7" data-name="Capa 7">
    <g id="KN7llb.tif">
      <g>
        <path class="cls-4" d="M75.1,65.72c1.26-3.02,2.18-6.72,3.51-9.93,6.04-14.53,12.57-28.86,18.28-43.53.97-6.24-7.9-11.37-13.38-12.11-8.98-1.2-29.68,4.85-38.92,7.84-12.08,3.92-36.09,13.33-42.26,24.55-6.99,12.71,2.55,29.73,16.83,30.19.34-4.16-.7-8.94.46-12.97,3.48-12.11,29.54-25.03,40.96-28.82,2.76-.92,5.48-2.21,8.51-1.96l-45.69,109.13c-1.41,5.35-4.99,12.05-4.21,17.61,1.02,7.22,14.9,13.27,21.46,13.52,6.95.27,3.54-3.41,3.7-7.22.34-7.82,12.95-47.7,16.98-54.74.64-1.13,2.68-4.05,4.25-3.71,1.39.84,1.27,2.05,1.66,3.33,8.01,26.8,22.49,75.76,56.4,78.15,7.69.54,23.06-6.35,26.34-13.85-26.27-.26-44.33-26.95-53.41-48.75-2.86-6.88-6.3-16.14-7.41-23.44s-.38-9.62,4.85-14.87c10.25-10.29,22.14-21.11,33.51-30.27,11.92-9.6,26.65-20.83,41.43-24.88,1.85-1.58-6.67-6.86-7.98-7.46-18.98-8.65-33.52,3.73-46.96,15.9s-25.83,26.22-37.92,39.3l-1-.99ZM447.34,5.32c-22.64,2.61-60.18,22.55-66.98,45.67-7.93,26.95,19.89,35.88,37.94,46.37,4.63,2.69,15.33,8.28,16.27,13.63,1.9,10.8-7.6,15.91-16.73,18.1-10.58,2.54-21.14,2.61-31.19-2.2-3.62-1.73-4.97-5.08-8.36-6.42l-12.17,14.79c-1.19,4.58,12.47,10.84,16.01,12.05,25.6,8.73,71.43-2.81,78.95-31.84,7.82-30.15-29.66-33.45-46.38-47.34-18-14.96,5.72-32.48,18.87-39.72,9.37-5.16,21.15-9.92,32-7.96,3.88,4.27,1.05,8.41-1.6,12.38-4.92,7.35-12.46,12.18-19.38,17.48,20,23.03,44.78-7.84,41.86-29.76-2.15-16.08-26.74-16.64-39.1-15.22ZM503.49,86.6c6.07-12.85,13.78-34.42,18.01-48.19,3.33-10.84,5.63-19.27-7.97-22.96-4.12-1.12-8.89-1.68-12.95-.36.56,7.55-.64,13.64-2.58,20.81-7.48,27.69-21.51,55.88-27.99,83.5-1.57,6.67-3.71,14.7,2.57,19.37,4.37,3.24,9.11,4.01,14.48,3.58,5.68-.46,3.03-7.77,3.44-12.48,1.09-12.38,15.79-35.52,25.48-43.24,1.75-1.4,7.39-5.96,8.42-2.4s-9.06,24.41-10.95,29.71c-3.45,9.7-8.15,22.29,4.47,27.42,12.98,5.27,22.56-3.15,31.02-11.96,1.03-1.07,2.04-3.53,2.98-3.99,1.7-.84,1.31.83,1.56,1.39,3.34,7.53,4.99,11.41,13.23,14.69,24.15,9.61,43.06-13.09,51.04-33.06l13.54-4.9c-4.34,18.17-12.61,35.77-17.47,53.69-1.32,4.87-3.73,10.75-.06,14.98,4.34,5.01,12.69,4.33,18.6,3.48,3.27-13.42,6.12-27.24,10.92-40.34,2.51-.13,3.57,2.55,5.64,3.82,33.11,20.3,64.98-31.4,54.04-59.78-7.69-19.95-32.9-7.51-42.71,4.25,5.24-15.32-9.15-18.07-20.99-14.91,2.07,7.54-2.36,16.16-4.25,23.61-4.48,2.93-9.44,5.11-14.72,6.22,1.93-19.74-9.71-34.11-30.37-31.73-6.5.75-14.87,4.88-18.43,10.48s-4.38,5.39-8.1,9.83c-9.91,11.81-7.89,26.6-20.97,37.79-4.78,4.09-10.2,6.12-8.81-2.76,1.9-12.16,13.53-27.97,14.73-40.13,1.01-10.16-9.78-14.2-18.43-13.33-11.18,1.12-18.15,11.86-25.45,18.91l-1-.99ZM233.87,82.62c4.94-13.97,16.93-38.17,18.72-51.46,2.08-15.41-11.72-16.52-23.72-16.17.59,7.19-.41,13.4-2.07,20.31-3.56,14.77-9.87,32.27-14.86,46.86-5.12,14.97-8.44,28.45-19.49,40.26-3.23,3.45-11.9,11.02-11.55,1.49.43-11.72,11.71-28.83,13.8-41.02,2.58-15.08-11.56-14.66-22.74-14.19,1.2,5.29.8,8.76-.47,13.94-2.9,11.82-14.7,38.15-24.94,44.77-1.52.98-2.83,1.55-4.61.51-2.4-1.66-.12-8.97.56-11.5,1.8-6.67,5.21-12.88,7.51-19.37,1.33-3.75,5.89-15.72,5.69-18.77-.71-10.58-15.83-10.62-23.69-9.59.84,4.31.7,7.87-.25,12.18-3.42,15.63-15.06,35.25-13.77,51.01.78,9.52,9.95,12.45,18.45,11.32,7.97-1.06,15.02-9.69,20.53-14.85-.73,8.38,5.64,13.98,13.58,14.82,12.62,1.33,19.82-7.88,27.88-15.81.74,3.56.17,5.33,2.49,8.45,3.75,5.03,20.45,12.5,19.98,1.49,18.11,15.02,38.15,3.99,48.73-13.61,6.67-11.09,12.44-29.34,8.48-41.88-5.19-16.42-21.34-15.21-33.6-7-3.8,2.54-6.74,6.89-10.64,9.79v-1.99ZM368.82,104.66c-4.57,7.77-10.69,17.91-18.17,23.15-2.37,1.66-4.76,2.16-5.76-1.12-1.54-5.01,7.11-25.04,9.63-30.82,1.35-3.1,8.7-15.6,8.1-17.58-3.53-3.71-11.04-6.29-15.96-5.18-1.57.36-4.86,2.36-5.46,2.32-.81-.04-2.39-2.47-3.53-3.2-30.32-19.26-66.43,30.23-58.4,58.16,6.6,22.95,31.18,11.38,42.46-1.03-.5,8.03,6.49,12.71,13.74,13.67,14.76,1.96,28.27-16.44,34.38-27.91,2.19-4.11,7.47-11.69-1.04-10.47Z"/>
        <g>
          <g>
            <path class="cls-2" d="M233.87,82.62c-.21.61-1.68,1.27-.99,2.98,1.12.17.94-.95.99-.99,3.9-2.9,6.84-7.25,10.64-9.79,12.26-8.21,28.41-9.41,33.6,7,3.96,12.54-1.81,30.79-8.48,41.88-10.59,17.6-30.63,28.64-48.73,13.61.46,11.01-16.24,3.54-19.98-1.49-2.32-3.12-1.75-4.89-2.49-8.45-8.06,7.93-15.25,17.15-27.88,15.81-7.94-.84-14.31-6.45-13.58-14.82-5.52,5.16-12.56,13.79-20.53,14.85-8.5,1.13-17.67-1.8-18.45-11.32-1.29-15.76,10.36-35.38,13.77-51.01.94-4.31,1.09-7.87.25-12.18,7.86-1.03,22.98-.99,23.69,9.59.2,3.05-4.35,15.02-5.69,18.77-2.31,6.49-5.71,12.69-7.51,19.37-.68,2.53-2.96,9.84-.56,11.5,1.78,1.04,3.1.47,4.61-.51,10.24-6.63,22.04-32.96,24.94-44.77,1.27-5.18,1.67-8.66.47-13.94,11.18-.46,25.32-.89,22.74,14.19-2.08,12.19-13.36,29.29-13.8,41.02-.35,9.53,8.32,1.95,11.55-1.49,11.05-11.81,14.37-25.29,19.49-40.26,4.99-14.59,11.3-32.09,14.86-46.86,1.67-6.91,2.66-13.12,2.07-20.31,11.99-.36,25.79.76,23.72,16.17-1.79,13.29-13.78,37.49-18.72,51.46ZM250.53,82.85c-7.84.61-18.43,17.03-22.17,23.62-4.57,8.05-14.94,27.51,3.04,25.92,12.92-1.14,25.09-30.1,25.49-41.34.13-3.49-2.52-8.49-6.36-8.19Z"/>
            <path class="cls-2" d="M368.82,104.66c8.51-1.22,3.23,6.35,1.04,10.47-6.11,11.46-19.62,29.87-34.38,27.91-7.25-.96-14.24-5.64-13.74-13.67-11.28,12.4-35.86,23.98-42.46,1.03-8.03-27.93,28.08-77.42,58.4-58.16,1.14.72,2.72,3.15,3.53,3.2.6.03,3.89-1.97,5.46-2.32,4.92-1.12,12.42,1.47,15.96,5.18.59,1.98-6.75,14.48-8.1,17.58-2.52,5.78-11.16,25.81-9.63,30.82,1,3.28,3.4,2.79,5.76,1.12,7.47-5.25,13.6-15.39,18.17-23.15ZM329.49,78.82c-13.28,1.73-27.38,27.04-28.64,39.21-.59,5.71,1.2,12.07,8.2,10.13,6.21-1.73,16.91-20.67,20.09-26.74,1.21-2.31,8.61-17.31,8.59-18.32-.04-3.17-5.62-4.62-8.24-4.28Z"/>
            <path class="cls-2" d="M233.87,84.61c-.06.04.13,1.16-.99.99-.68-1.71.78-2.38.99-2.98v1.99Z"/>
          </g>
          <g>
            <path class="cls-2" d="M75.1,65.72c-.44,1.05-2.68,2.02-1.99,3.98,1.57-.24,2.13-2.06,2.99-2.98,12.1-13.08,24.73-27.36,37.92-39.3s27.98-24.54,46.96-15.9c1.31.6,9.83,5.88,7.98,7.46-14.78,4.05-29.5,15.28-41.43,24.88-11.37,9.16-23.27,19.98-33.51,30.27-5.24,5.26-5.95,7.66-4.85,14.87s4.55,16.56,7.41,23.44c9.08,21.8,27.14,48.5,53.41,48.75-3.28,7.5-18.64,14.4-26.34,13.85-33.91-2.39-48.39-51.34-56.4-78.15-.38-1.28-.27-2.49-1.66-3.33-1.56-.34-3.6,2.59-4.25,3.71-4.03,7.04-16.64,46.92-16.98,54.74-.17,3.81,3.25,7.49-3.7,7.22-6.56-.26-20.45-6.3-21.46-13.52-.78-5.55,2.79-12.26,4.21-17.61L69.1,18.98c-3.03-.24-5.74,1.04-8.51,1.96-11.42,3.8-37.48,16.72-40.96,28.82-1.16,4.03-.12,8.81-.46,12.97-14.28-.46-23.82-17.48-16.83-30.19,6.17-11.22,30.18-20.63,42.26-24.55C53.83,5,74.54-1.05,83.52.16c5.47.73,14.35,5.87,13.38,12.11-5.71,14.67-12.24,29-18.28,43.53-1.33,3.2-2.25,6.91-3.51,9.93Z"/>
            <path class="cls-2" d="M76.1,66.71c-.85.92-1.42,2.74-2.99,2.98-.69-1.96,1.55-2.93,1.99-3.98l1,.99Z"/>
          </g>
        </g>
        <path class="cls-4" d="M674.97,82.84c14.94-4.15,5.25,22.36,2.46,28.31-3.29,7.01-12.31,20.73-20.73,21.17-3.28.17-9.01-3.17-9.45-6.47-1.08-8.22,19.38-40.69,27.72-43.01Z"/>
        <g>
          <path class="cls-1" d="M503.49,86.6c-.25.53-2.48,2.59-2,2.98,2.15.59,2.1-1.12,3-1.98,7.3-7.05,14.27-17.78,25.45-18.91,8.65-.87,19.44,3.16,18.43,13.33-1.21,12.16-12.84,27.97-14.73,40.13-1.38,8.88,4.03,6.85,8.81,2.76,13.08-11.19,11.06-25.98,20.97-37.79,3.72-4.44,4.67-4.44,8.1-9.83s11.93-9.73,18.43-10.48c20.67-2.38,32.3,11.99,30.37,31.73,5.28-1.11,10.24-3.29,14.72-6.22,1.89-7.45,6.31-16.07,4.25-23.61,11.84-3.16,26.23-.41,20.99,14.91,9.8-11.75,35.02-24.2,42.71-4.25,10.94,28.38-20.93,80.08-54.04,59.78-2.07-1.27-3.13-3.95-5.64-3.82-4.81,13.1-7.66,26.93-10.92,40.34-5.91.85-14.26,1.52-18.6-3.48-3.67-4.23-1.26-10.11.06-14.98,4.87-17.92,13.13-35.52,17.47-53.69l-13.54,4.9c-7.98,19.97-26.89,42.67-51.04,33.06-8.24-3.28-9.9-7.16-13.23-14.69-.25-.56.14-2.23-1.56-1.39-.94.46-1.95,2.92-2.98,3.99-8.46,8.81-18.05,17.22-31.02,11.96-12.63-5.12-7.92-17.71-4.47-27.42,1.89-5.3,11.99-26.09,10.95-29.71s-6.66,1-8.42,2.4c-9.7,7.72-24.39,30.86-25.48,43.24-.41,4.71,2.24,12.02-3.44,12.48-5.37.43-10.11-.33-14.48-3.58-6.28-4.66-4.14-12.69-2.57-19.37,6.48-27.62,20.52-55.81,27.99-83.5,1.93-7.16,3.13-13.25,2.58-20.81,4.06-1.31,8.83-.76,12.95.36,13.6,3.69,11.31,12.12,7.97,22.96-4.23,13.77-11.94,35.34-18.01,48.19ZM596.04,76.82c-1.27.39-4.32,3.78-4.91,5.06-2.12,4.58.7,11.72,4.89,14.5,2.67,1.78,5.41,3.57,6.3-.36,1.22-5.41,3.11-22.06-6.28-19.2ZM674.97,82.84c-8.34,2.32-28.8,34.79-27.72,43.01.43,3.3,6.17,6.64,9.45,6.47,8.42-.44,17.44-14.16,20.73-21.17,2.79-5.94,12.48-32.46-2.46-28.31ZM582.37,97.54c-1.57-1.99-5.07,5.95-5.47,6.97-2.36,6.01-6.43,21.78-.07,25.9,9.98,6.47,23.55-19.88,21.46-22.86-5.74-1.77-13.87-3.72-15.92-10.01Z"/>
          <path class="cls-1" d="M447.34,5.32c12.37-1.42,36.96-.86,39.1,15.22,2.93,21.93-21.85,52.79-41.86,29.76,6.92-5.3,14.46-10.13,19.38-17.48,2.65-3.96,5.49-8.11,1.6-12.38-10.85-1.96-22.63,2.8-32,7.96-13.15,7.24-36.88,24.76-18.87,39.72,16.72,13.89,54.2,17.19,46.38,47.34-7.53,29.02-53.36,40.57-78.95,31.84-3.54-1.21-17.2-7.46-16.01-12.05l12.17-14.79c3.39,1.34,4.74,4.69,8.36,6.42,10.05,4.81,20.62,4.74,31.19,2.2,9.12-2.19,18.62-7.3,16.73-18.1-.94-5.35-11.64-10.94-16.27-13.63-18.05-10.49-45.87-19.42-37.94-46.37,6.8-23.11,44.34-43.06,66.98-45.67Z"/>
          <path class="cls-1" d="M504.49,87.6c-.89.86-.85,2.58-3,1.98-.48-.39,1.75-2.45,2-2.98l1,.99Z"/>
          <path class="cls-3" d="M582.37,97.54c2.04,6.3,10.17,8.25,15.92,10.01,2.1,2.97-11.48,29.33-21.46,22.86-6.36-4.12-2.29-19.9.07-25.9.4-1.01,3.9-8.96,5.47-6.97Z"/>
          <path class="cls-3" d="M596.04,76.82c9.39-2.86,7.5,13.79,6.28,19.2-.89,3.93-3.63,2.14-6.3.36-4.19-2.78-7.02-9.92-4.89-14.5.6-1.29,3.64-4.68,4.91-5.06Z"/>
        </g>
        <path class="cls-3" d="M250.53,82.85c3.85-.3,6.49,4.7,6.36,8.19-.41,11.24-12.57,40.2-25.49,41.34-17.98,1.59-7.61-17.87-3.04-25.92,3.74-6.59,14.33-23.01,22.17-23.62Z"/>
        <path class="cls-4" d="M329.49,78.82c2.62-.34,8.19,1.11,8.24,4.28.01,1.01-7.38,16.02-8.59,18.32-3.18,6.06-13.88,25.01-20.09,26.74-7,1.95-8.79-4.42-8.2-10.13,1.26-12.16,15.36-37.48,28.64-39.21Z"/>
      </g>
    </g>
  </g>
</svg>